<svg width="22" height="21" viewBox="0 0 22 21" fill="none" xmlns="http://www.w3.org/2000/svg">
    <path d="M11.2086 1.75941C9.76359 1.49216 8.40945 2.49229 8.14309 3.93249L6.01115 15.4602C5.7448 16.9004 6.65168 18.3187 8.0967 18.586L15.8205 20.0144C17.2655 20.2817 18.6197 19.2815 18.886 17.8413L21.018 6.31358C21.2843 4.87337 20.3775 3.45509 18.9324 3.18785L11.2086 1.75941Z" fill="#191BAF" stroke="white" stroke-width="1.31102"/>
    <path fill-rule="evenodd" clip-rule="evenodd" d="M10.3949 7.05215C10.4436 6.78847 10.6969 6.61424 10.9606 6.66301L13.8253 7.1928C14.0889 7.24156 14.2632 7.49486 14.2144 7.75854C14.1656 8.02223 13.9124 8.19645 13.6487 8.14769L10.784 7.61789C10.5203 7.56913 10.3461 7.31584 10.3949 7.05215Z" fill="white"/>
    <path fill-rule="evenodd" clip-rule="evenodd" d="M9.99813 9.20108C10.0469 8.93739 10.3002 8.76317 10.5639 8.81193L17.0094 10.004C17.2731 10.0527 17.4473 10.306 17.3985 10.5697C17.3497 10.8334 17.0965 11.0076 16.8328 10.9589L10.3873 9.76682C10.1236 9.71805 9.94936 9.46476 9.99813 9.20108Z" fill="white"/>
    <path fill-rule="evenodd" clip-rule="evenodd" d="M9.60067 11.35C9.64943 11.0863 9.90272 10.9121 10.1664 10.9609L15.4183 11.9321C15.682 11.9809 15.8562 12.2342 15.8074 12.4979C15.7587 12.7616 15.5054 12.9358 15.2417 12.887L9.98981 11.9157C9.72613 11.867 9.5519 11.6137 9.60067 11.35Z" fill="white"/>
    <path d="M3.20291 3.36093C1.72536 3.69457 0.730741 5.12428 1.06528 6.60579L3.64745 18.0411C3.98199 19.5226 5.49445 20.3862 6.972 20.0526L15.3387 18.1633C16.8163 17.8297 17.8109 16.4 17.4764 14.9185L14.8942 3.48313C14.5597 2.00162 13.0472 1.13802 11.5696 1.47167L3.20291 3.36093Z" fill="#191BAF"/>
    <path d="M3.20291 3.36093C1.72536 3.69457 0.730741 5.12428 1.06528 6.60579L3.64745 18.0411C3.98199 19.5226 5.49445 20.3862 6.972 20.0526L15.3387 18.1633C16.8163 17.8297 17.8109 16.4 17.4764 14.9185L14.8942 3.48313C14.5597 2.00162 13.0472 1.13802 11.5696 1.47167L3.20291 3.36093Z" stroke="white" stroke-width="1.31102"/>
    <path d="M3.20291 3.36093C1.72536 3.69457 0.730741 5.12428 1.06528 6.60579L3.64745 18.0411C3.98199 19.5226 5.49445 20.3862 6.972 20.0526L15.3387 18.1633C16.8163 17.8297 17.8109 16.4 17.4764 14.9185L14.8942 3.48313C14.5597 2.00162 13.0472 1.13802 11.5696 1.47167L3.20291 3.36093Z" stroke="white" stroke-width="1.31102"/>
    <path fill-rule="evenodd" clip-rule="evenodd" d="M4.57721 8.64871C4.51677 8.38105 4.69933 8.11178 4.98496 8.04728L8.08807 7.34657C8.37371 7.28208 8.65426 7.44677 8.7147 7.71444C8.77514 7.9821 8.59258 8.25137 8.30695 8.31586L5.20383 9.01657C4.9182 9.08107 4.63765 8.91637 4.57721 8.64871Z" fill="white"/>
    <path fill-rule="evenodd" clip-rule="evenodd" d="M5.07001 10.8289C5.00957 10.5612 5.19212 10.292 5.47776 10.2275L12.4598 8.65087C12.7454 8.58637 13.0259 8.75107 13.0864 9.01873C13.1468 9.28639 12.9643 9.55566 12.6786 9.62016L5.69663 11.1967C5.411 11.2612 5.13045 11.0965 5.07001 10.8289Z" fill="white"/>
    <path fill-rule="evenodd" clip-rule="evenodd" d="M5.56281 13.0105C5.50237 12.7429 5.68492 12.4736 5.97055 12.4091L11.6596 11.1245C11.9452 11.06 12.2258 11.2247 12.2862 11.4923C12.3467 11.76 12.1641 12.0293 11.8785 12.0938L6.18943 13.3784C5.90379 13.4429 5.62325 13.2782 5.56281 13.0105Z" fill="white"/>
</svg>
