<svg width="390" height="257" viewBox="0 0 390 257" fill="none" xmlns="http://www.w3.org/2000/svg">
<g opacity="0.5" clip-path="url(#clip0_195_300)">
<path d="M439.357 71.1958L485.591 139.001L201.609 289.671L194.596 279.386L439.357 71.1958Z" fill="url(#paint0_linear_195_300)"/>
<path d="M509.031 195.227L524.039 275.91L203.424 299.438L201.148 287.199L509.031 195.227Z" fill="url(#paint1_linear_195_300)"/>
<path d="M334.084 -10.0254L401.743 36.4208L191.648 279.746L181.385 272.701L334.084 -10.0254Z" fill="url(#paint2_linear_195_300)"/>
<path d="M-101.106 142.965L-55.56 74.696L190.526 281.551L183.617 291.907L-101.106 142.965Z" fill="url(#paint3_linear_195_300)"/>
<path d="M-12.2095 31.8994L56.976 -12.242L198.901 276.21L188.407 282.906L-12.2095 31.8994Z" fill="url(#paint4_linear_195_300)"/>
<path d="M-136.974 271L-119.258 190.867L185.055 294.506L182.368 306.66L-136.974 271Z" fill="url(#paint5_linear_195_300)"/>
<path d="M147.053 -37.606L229.117 -38.3516L196.52 281.468L184.072 281.582L147.053 -37.606Z" fill="url(#paint6_linear_195_300)"/>
</g>
<defs>
<linearGradient id="paint0_linear_195_300" x1="462.474" y1="105.098" x2="198.492" y2="285.1" gradientUnits="userSpaceOnUse">
<stop offset="0.239583" stop-color="#83CBFF" stop-opacity="0.1"/>
<stop offset="0.59375" stop-color="#5FB8F7"/>
</linearGradient>
<linearGradient id="paint1_linear_195_300" x1="516.535" y1="235.568" x2="202.413" y2="293.998" gradientUnits="userSpaceOnUse">
<stop offset="0.296875" stop-color="#99D5FF" stop-opacity="0.1"/>
<stop offset="0.666667" stop-color="#5FB8F7"/>
</linearGradient>
<linearGradient id="paint2_linear_195_300" x1="367.914" y1="13.1977" x2="187.087" y2="276.615" gradientUnits="userSpaceOnUse">
<stop offset="0.239583" stop-color="#83CBFF" stop-opacity="0.1"/>
<stop offset="0.59375" stop-color="#5FB8F7"/>
</linearGradient>
<linearGradient id="paint3_linear_195_300" x1="-78.3332" y1="108.83" x2="187.455" y2="286.154" gradientUnits="userSpaceOnUse">
<stop offset="0.119792" stop-color="#83CBFF" stop-opacity="0.1"/>
<stop offset="0.536458" stop-color="#5FB8F7"/>
</linearGradient>
<linearGradient id="paint4_linear_195_300" x1="22.3832" y1="9.82869" x2="194.237" y2="279.186" gradientUnits="userSpaceOnUse">
<stop offset="0.151042" stop-color="#99D5FF" stop-opacity="0.1"/>
<stop offset="0.588542" stop-color="#5FB8F7"/>
</linearGradient>
<linearGradient id="paint5_linear_195_300" x1="-128.116" y1="230.933" x2="183.861" y2="299.908" gradientUnits="userSpaceOnUse">
<stop offset="0.119792" stop-color="#83CBFF" stop-opacity="0.1"/>
<stop offset="0.536458" stop-color="#5FB8F7"/>
</linearGradient>
<linearGradient id="paint6_linear_195_300" x1="188.085" y1="-37.9788" x2="190.988" y2="281.519" gradientUnits="userSpaceOnUse">
<stop offset="0.104167" stop-color="#83CBFF" stop-opacity="0.1"/>
<stop offset="0.536458" stop-color="#5FB8F7"/>
</linearGradient>
<clipPath id="clip0_195_300">
<rect width="716" height="345" fill="white" transform="translate(-163 -88)"/>
</clipPath>
</defs>
</svg>
