<svg width="388" height="171" viewBox="0 0 388 171" fill="none" xmlns="http://www.w3.org/2000/svg">
<g opacity="0.9">
<circle cx="336.761" cy="87.4668" r="30.1062" transform="rotate(102.401 336.761 87.4668)" fill="url(#paint0_radial_195_311)"/>
<circle cx="336.761" cy="87.4668" r="30.1062" transform="rotate(102.401 336.761 87.4668)" fill="url(#paint1_radial_195_311)" fill-opacity="0.2"/>
<path d="M345.796 96.3156C344.094 97.315 342.418 97.9278 340.768 98.1541C339.12 98.3687 337.638 98.2141 336.32 97.6904C335.002 97.1668 333.983 96.2935 333.265 95.0707C332.711 94.1279 332.417 93.1369 332.381 92.0978C332.348 91.047 332.55 90.0416 332.987 89.0816C333.42 88.1143 334.053 87.2866 334.887 86.5984L334.797 86.4438C333.446 86.9102 332.122 86.9 330.826 86.4131C329.525 85.9189 328.511 85.0531 327.784 83.8155C327.096 82.6443 326.827 81.4008 326.975 80.0851C327.119 78.7619 327.635 77.4884 328.521 76.2646C329.41 75.029 330.617 73.9634 332.142 73.0679C333.667 72.1723 335.181 71.6393 336.686 71.4688C338.198 71.2939 339.567 71.4657 340.793 71.9842C342.015 72.4952 342.971 73.3305 343.662 74.49C344.386 75.7393 344.641 77.0507 344.427 78.4245C344.214 79.7983 343.585 80.9549 342.542 81.8946L342.633 82.0493C343.625 81.6644 344.646 81.5209 345.694 81.6186C346.745 81.7047 347.722 82.0178 348.623 82.5581C349.528 83.0867 350.261 83.8203 350.823 84.7588C351.533 85.986 351.796 87.3027 351.612 88.7089C351.427 90.1152 350.836 91.4876 349.839 92.8262C348.845 94.1531 347.497 95.3162 345.796 96.3156ZM343.732 92.8019C344.491 92.3563 345.074 91.8306 345.481 91.225C345.884 90.6119 346.101 89.9693 346.132 89.2971C346.166 88.6132 345.995 87.9508 345.619 87.31C345.234 86.6544 344.728 86.1735 344.103 85.8673C343.473 85.5537 342.79 85.4198 342.054 85.4657C341.313 85.5041 340.575 85.7397 339.838 86.1723C339.109 86.6006 338.544 87.1308 338.142 87.763C337.736 88.3877 337.517 89.0515 337.484 89.7545C337.454 90.4458 337.632 91.1192 338.017 91.7748C338.393 92.4156 338.885 92.8898 339.491 93.1973C340.094 93.4974 340.764 93.6187 341.503 93.5612C342.238 93.4963 342.981 93.2432 343.732 92.8019ZM337.794 82.6918C338.428 82.3197 338.915 81.8599 339.258 81.3122C339.6 80.7645 339.777 80.1801 339.788 79.559C339.8 78.9379 339.631 78.329 339.28 77.7323C338.934 77.143 338.491 76.7096 337.952 76.432C337.408 76.1471 336.819 76.0222 336.186 76.0573C335.548 76.085 334.906 76.2892 334.257 76.6699C333.616 77.0463 333.125 77.5084 332.783 78.0561C332.436 78.5964 332.255 79.1734 332.239 79.7871C332.226 80.3892 332.393 80.9849 332.739 81.5742C333.089 82.1708 333.539 82.6153 334.087 82.9076C334.635 83.1999 335.232 83.33 335.876 83.298C336.521 83.2659 337.161 83.0639 337.794 82.6918Z" fill="white"/>
<circle cx="282.559" cy="94.3483" r="39.4971" transform="rotate(26.2791 282.559 94.3483)" fill="url(#paint2_radial_195_311)"/>
<circle cx="282.559" cy="94.3483" r="39.4971" transform="rotate(26.2791 282.559 94.3483)" fill="url(#paint3_radial_195_311)" fill-opacity="0.2"/>
<path d="M291.592 79.3904L285.741 112.976L278.64 111.738L283.317 84.8932L283.12 84.8589L274.589 88.3401L275.686 82.0429L284.918 78.2274L291.592 79.3904Z" fill="white"/>
</g>
<g opacity="0.9">
<circle cx="55.2378" cy="95.4834" r="39.4971" transform="rotate(-36.4589 55.2378 95.4834)" fill="url(#paint4_radial_195_311)"/>
<circle cx="55.2378" cy="95.4834" r="39.4971" transform="rotate(-36.4589 55.2378 95.4834)" fill="url(#paint5_radial_195_311)" fill-opacity="0.2"/>
<circle cx="116.509" cy="89.0173" r="30.1062" transform="rotate(-36.4589 116.509 89.0173)" fill="url(#paint6_radial_195_311)"/>
<circle cx="116.509" cy="89.0173" r="30.1062" transform="rotate(-36.4589 116.509 89.0173)" fill="url(#paint7_radial_195_311)" fill-opacity="0.2"/>
<path d="M119.348 100.837C117.44 101.341 115.66 101.48 114.01 101.253C112.366 101.016 110.98 100.467 109.851 99.6078C108.723 98.7484 107.978 97.6331 107.616 96.262C107.337 95.2048 107.32 94.171 107.566 93.1607C107.817 92.14 108.283 91.2263 108.962 90.4195C109.639 89.6045 110.472 88.9781 111.461 88.5402L111.415 88.3667C109.989 88.4519 108.717 88.0854 107.599 87.2672C106.48 86.4408 105.737 85.3338 105.37 83.9462C105.024 82.6329 105.099 81.3627 105.597 80.1357C106.092 78.9004 106.931 77.8128 108.114 76.873C109.304 75.9227 110.753 75.2218 112.463 74.7703C114.173 74.3187 115.775 74.2136 117.27 74.4549C118.774 74.694 120.046 75.2283 121.086 76.0579C122.125 76.8792 122.821 77.9412 123.174 79.2441C123.534 80.6421 123.426 81.9738 122.851 83.2392C122.275 84.5046 121.358 85.4492 120.1 86.0729L120.146 86.2464C121.205 86.1433 122.227 86.28 123.21 86.6565C124.199 87.0226 125.055 87.5873 125.778 88.3507C126.507 89.1035 127.015 90.0075 127.302 91.0625C127.656 92.4358 127.555 93.7747 126.998 95.0792C126.441 96.3837 125.503 97.5461 124.182 98.5665C122.867 99.5764 121.255 100.333 119.348 100.837ZM118.307 96.8975C119.158 96.6728 119.861 96.3237 120.416 95.8501C120.969 95.3683 121.351 94.8079 121.562 94.169C121.78 93.5196 121.793 92.8356 121.604 92.117C121.409 91.3819 121.052 90.7827 120.532 90.3192C120.01 89.8474 119.389 89.5345 118.667 89.3803C117.944 89.2179 117.17 89.2458 116.344 89.4639C115.526 89.6799 114.839 90.0381 114.282 90.5387C113.723 91.0309 113.332 91.6111 113.111 92.2792C112.896 92.9368 112.886 93.6332 113.08 94.3683C113.27 95.0869 113.615 95.6759 114.116 96.1355C114.616 96.5869 115.229 96.8844 115.956 97.0281C116.681 97.1635 117.465 97.12 118.307 96.8975ZM115.313 85.5613C116.023 85.3737 116.617 85.0623 117.094 84.627C117.571 84.1918 117.899 83.6767 118.077 83.0817C118.256 82.4867 118.257 81.8547 118.08 81.1857C117.906 80.5249 117.596 79.9882 117.151 79.5755C116.705 79.1546 116.171 78.8757 115.552 78.7389C114.931 78.5938 114.256 78.6172 113.53 78.8092C112.811 78.9989 112.213 79.3115 111.736 79.7467C111.257 80.1737 110.927 80.6805 110.746 81.2673C110.571 81.8435 110.571 82.4621 110.746 83.1228C110.923 83.7918 111.236 84.341 111.685 84.7701C112.134 85.1993 112.673 85.4854 113.303 85.6283C113.933 85.7713 114.603 85.7489 115.313 85.5613Z" fill="white"/>
<path d="M46.0798 80.6017L73.2539 101.188L68.9016 106.933L47.1808 90.4782L47.0602 90.6374L46.2469 99.8156L41.1518 95.9558L41.9887 86.002L46.0798 80.6017Z" fill="white"/>
</g>
<g filter="url(#filter0_d_195_311)">
<circle cx="174.984" cy="67.4787" r="44.4787" fill="url(#paint8_radial_195_311)"/>
<circle cx="174.984" cy="67.4787" r="44.4787" fill="url(#paint9_radial_195_311)" fill-opacity="0.2"/>
<circle cx="225.375" cy="95.6573" r="33.9034" fill="url(#paint10_radial_195_311)"/>
<circle cx="225.375" cy="95.6573" r="33.9034" fill="url(#paint11_radial_195_311)" fill-opacity="0.2"/>
<path d="M220.188 107.877C218.122 107.057 216.418 105.992 215.075 104.682C213.745 103.367 212.856 101.942 212.41 100.409C211.963 98.8754 212.034 97.3666 212.624 95.8825C213.078 94.738 213.755 93.7905 214.653 93.0398C215.565 92.2838 216.598 91.7677 217.753 91.4916C218.912 91.2066 220.085 91.1966 221.274 91.4618L221.348 91.274C219.999 90.3965 219.093 89.2134 218.628 87.7246C218.167 86.2269 218.235 84.727 218.832 83.225C219.396 81.8034 220.315 80.7035 221.586 79.9251C222.862 79.1378 224.35 78.7144 226.05 78.655C227.763 78.5901 229.545 78.9253 231.396 79.6604C233.247 80.3956 234.768 81.3727 235.961 82.5918C237.163 83.8144 237.957 85.1496 238.345 86.5975C238.736 88.0364 238.655 89.464 238.103 90.8802C237.494 92.3876 236.505 93.5217 235.137 94.2824C233.769 95.0431 232.306 95.2851 230.749 95.0084L230.675 95.1961C231.704 95.8117 232.537 96.619 233.175 97.6179C233.826 98.6114 234.224 99.6957 234.368 100.871C234.524 102.041 234.379 103.199 233.934 104.347C233.335 105.828 232.348 106.973 230.97 107.782C229.593 108.591 227.965 109.015 226.086 109.056C224.219 109.09 222.253 108.698 220.188 107.877ZM221.882 103.613C222.803 103.978 223.673 104.133 224.493 104.075C225.316 104.009 226.037 103.757 226.656 103.32C227.287 102.877 227.758 102.267 228.067 101.489C228.383 100.693 228.46 99.9113 228.299 99.1436C228.142 98.3668 227.789 97.6674 227.239 97.0453C226.692 96.4142 225.972 95.921 225.078 95.5659C224.193 95.2143 223.331 95.0788 222.491 95.1594C221.655 95.2311 220.914 95.4955 220.266 95.9526C219.631 96.4043 219.156 97.028 218.84 97.8237C218.531 98.6015 218.45 99.3663 218.596 100.118C218.746 100.861 219.102 101.541 219.665 102.157C220.231 102.765 220.97 103.25 221.882 103.613ZM226.756 91.3414C227.525 91.6469 228.271 91.7621 228.994 91.6871C229.718 91.6121 230.359 91.365 230.919 90.9456C231.479 90.5262 231.903 89.9544 232.191 89.2303C232.475 88.515 232.554 87.8217 232.427 87.1503C232.304 86.4699 232.008 85.8606 231.538 85.3222C231.072 84.7749 230.446 84.345 229.659 84.0324C228.882 83.7235 228.131 83.6065 227.408 83.6814C226.688 83.7475 226.05 83.9857 225.493 84.3961C224.95 84.8012 224.536 85.3613 224.251 86.0766C223.964 86.8008 223.88 87.5075 223.999 88.1968C224.119 88.886 224.416 89.5061 224.891 90.057C225.365 90.6079 225.987 91.036 226.756 91.3414Z" fill="white"/>
<path d="M176.421 47.103L187.257 83.933L179.47 86.2241L170.808 56.7853L170.593 56.8488L163.714 64.6175L161.682 57.7118L169.101 49.2565L176.421 47.103Z" fill="white"/>
</g>
<defs>
<filter id="filter0_d_195_311" x="113.505" y="0" width="162.774" height="140.561" filterUnits="userSpaceOnUse" color-interpolation-filters="sRGB">
<feFlood flood-opacity="0" result="BackgroundImageFix"/>
<feColorMatrix in="SourceAlpha" type="matrix" values="0 0 0 0 0 0 0 0 0 0 0 0 0 0 0 0 0 0 127 0" result="hardAlpha"/>
<feOffset dy="-6"/>
<feGaussianBlur stdDeviation="8.5"/>
<feComposite in2="hardAlpha" operator="out"/>
<feColorMatrix type="matrix" values="0 0 0 0 0 0 0 0 0 0.506667 0 0 0 0 0.666667 0 0 0 0.15 0"/>
<feBlend mode="normal" in2="BackgroundImageFix" result="effect1_dropShadow_195_311"/>
<feBlend mode="normal" in="SourceGraphic" in2="effect1_dropShadow_195_311" result="shape"/>
</filter>
<radialGradient id="paint0_radial_195_311" cx="0" cy="0" r="1" gradientUnits="userSpaceOnUse" gradientTransform="translate(324.971 80.3087) rotate(38.2614) scale(52.0169)">
<stop stop-color="#38B7FF"/>
<stop offset="0.340083" stop-color="#0396E9"/>
<stop offset="0.436621" stop-color="#0B96FA"/>
<stop offset="0.604167" stop-color="#009AF1"/>
<stop offset="0.671875" stop-color="#1591D8"/>
<stop offset="0.8125" stop-color="#0045AD"/>
<stop offset="1" stop-color="#061A85" stop-opacity="0.36"/>
</radialGradient>
<radialGradient id="paint1_radial_195_311" cx="0" cy="0" r="1" gradientUnits="userSpaceOnUse" gradientTransform="translate(331.497 81.993) rotate(-138.192) scale(40.108)">
<stop stop-color="#AED8FF"/>
<stop offset="0.74661" stop-color="#4D97ED"/>
<stop offset="1" stop-color="#0490DF"/>
</radialGradient>
<radialGradient id="paint2_radial_195_311" cx="0" cy="0" r="1" gradientUnits="userSpaceOnUse" gradientTransform="translate(267.091 84.9574) rotate(38.2614) scale(68.2423)">
<stop stop-color="#0459FE"/>
<stop offset="0.340083" stop-color="#162FFB"/>
<stop offset="0.436621" stop-color="#0B25FA"/>
<stop offset="0.59375" stop-color="#172CEE"/>
<stop offset="0.707801" stop-color="#0A20D9"/>
<stop offset="0.958547" stop-color="#000F87" stop-opacity="0.36"/>
</radialGradient>
<radialGradient id="paint3_radial_195_311" cx="0" cy="0" r="1" gradientUnits="userSpaceOnUse" gradientTransform="translate(275.654 87.167) rotate(-137.404) scale(73.0506)">
<stop stop-color="#5784DA"/>
<stop offset="0.73489" stop-color="#2534BB"/>
<stop offset="1" stop-color="#041ADF"/>
</radialGradient>
<radialGradient id="paint4_radial_195_311" cx="0" cy="0" r="1" gradientUnits="userSpaceOnUse" gradientTransform="translate(39.7704 86.0925) rotate(38.2614) scale(68.2423)">
<stop stop-color="#0459FE"/>
<stop offset="0.340083" stop-color="#162FFB"/>
<stop offset="0.436621" stop-color="#0B25FA"/>
<stop offset="0.59375" stop-color="#172CEE"/>
<stop offset="0.707801" stop-color="#0A20D9"/>
<stop offset="0.958547" stop-color="#000F87" stop-opacity="0.36"/>
</radialGradient>
<radialGradient id="paint5_radial_195_311" cx="0" cy="0" r="1" gradientUnits="userSpaceOnUse" gradientTransform="translate(48.3327 88.3021) rotate(-137.404) scale(73.0506)">
<stop stop-color="#5784DA"/>
<stop offset="0.73489" stop-color="#2534BB"/>
<stop offset="1" stop-color="#041ADF"/>
</radialGradient>
<radialGradient id="paint6_radial_195_311" cx="0" cy="0" r="1" gradientUnits="userSpaceOnUse" gradientTransform="translate(104.719 81.8592) rotate(38.2614) scale(52.0169)">
<stop stop-color="#38B7FF"/>
<stop offset="0.340083" stop-color="#0396E9"/>
<stop offset="0.436621" stop-color="#0B96FA"/>
<stop offset="0.604167" stop-color="#009AF1"/>
<stop offset="0.671875" stop-color="#1591D8"/>
<stop offset="0.8125" stop-color="#0045AD"/>
<stop offset="1" stop-color="#061A85" stop-opacity="0.36"/>
</radialGradient>
<radialGradient id="paint7_radial_195_311" cx="0" cy="0" r="1" gradientUnits="userSpaceOnUse" gradientTransform="translate(111.246 83.5434) rotate(-138.192) scale(40.108)">
<stop stop-color="#AED8FF"/>
<stop offset="0.74661" stop-color="#4D97ED"/>
<stop offset="1" stop-color="#0490DF"/>
</radialGradient>
<radialGradient id="paint8_radial_195_311" cx="0" cy="0" r="1" gradientUnits="userSpaceOnUse" gradientTransform="translate(157.565 56.9034) rotate(38.2614) scale(76.8496)">
<stop stop-color="#0459FE"/>
<stop offset="0.340083" stop-color="#162FFB"/>
<stop offset="0.436621" stop-color="#0B25FA"/>
<stop offset="0.59375" stop-color="#172CEE"/>
<stop offset="0.707801" stop-color="#0A20D9"/>
<stop offset="0.958547" stop-color="#000F87" stop-opacity="0.36"/>
</radialGradient>
<radialGradient id="paint9_radial_195_311" cx="0" cy="0" r="1" gradientUnits="userSpaceOnUse" gradientTransform="translate(167.208 59.3917) rotate(-137.404) scale(82.2644)">
<stop stop-color="#5784DA"/>
<stop offset="0.73489" stop-color="#2534BB"/>
<stop offset="1" stop-color="#041ADF"/>
</radialGradient>
<radialGradient id="paint10_radial_195_311" cx="0" cy="0" r="1" gradientUnits="userSpaceOnUse" gradientTransform="translate(212.099 87.5963) rotate(38.2614) scale(58.5777)">
<stop stop-color="#38B7FF"/>
<stop offset="0.340083" stop-color="#0396E9"/>
<stop offset="0.436621" stop-color="#0B96FA"/>
<stop offset="0.604167" stop-color="#009AF1"/>
<stop offset="0.671875" stop-color="#1591D8"/>
<stop offset="0.8125" stop-color="#0045AD"/>
<stop offset="1" stop-color="#061A85" stop-opacity="0.36"/>
</radialGradient>
<radialGradient id="paint11_radial_195_311" cx="0" cy="0" r="1" gradientUnits="userSpaceOnUse" gradientTransform="translate(219.448 89.493) rotate(-138.192) scale(45.1667)">
<stop stop-color="#AED8FF"/>
<stop offset="0.74661" stop-color="#4D97ED"/>
<stop offset="1" stop-color="#0490DF"/>
</radialGradient>
</defs>
</svg>
