<svg width="17" height="20" viewBox="0 0 17 20" fill="none" xmlns="http://www.w3.org/2000/svg">
    <path d="M15.8151 13.5672C15.7457 13.4835 15.6775 13.3999 15.6106 13.3192C14.6905 12.2063 14.1339 11.5347 14.1339 8.38442C14.1339 6.75344 13.7437 5.4152 12.9747 4.41152C12.4076 3.67005 11.641 3.10758 10.6307 2.69189C10.6177 2.68465 10.6061 2.67517 10.5964 2.66387C10.233 1.44691 9.23848 0.631836 8.11687 0.631836C6.99526 0.631836 6.0012 1.44691 5.63779 2.66261C5.62809 2.6735 5.61664 2.68268 5.60391 2.68979C3.2461 3.66044 2.10024 5.52268 2.10024 8.38316C2.10024 11.5347 1.54445 12.2063 0.623575 13.3179C0.556663 13.3986 0.488496 13.4806 0.419075 13.5659C0.239752 13.7822 0.126135 14.0453 0.0916726 14.3241C0.0572097 14.6029 0.103343 14.8858 0.224612 15.1392C0.482641 15.6828 1.03257 16.0203 1.66029 16.0203H14.5781C15.2028 16.0203 15.749 15.6832 16.0079 15.1421C16.1297 14.8886 16.1762 14.6055 16.1421 14.3264C16.1079 14.0473 15.9944 13.7838 15.8151 13.5672ZM8.11687 19.3672C8.72118 19.3667 9.3141 19.2026 9.83273 18.8924C10.3514 18.5823 10.7764 18.1375 11.0627 17.6053C11.0762 17.5798 11.0828 17.5512 11.082 17.5224C11.0812 17.4935 11.0729 17.4654 11.058 17.4407C11.0431 17.416 11.0221 17.3956 10.997 17.3814C10.9718 17.3672 10.9435 17.3598 10.9146 17.3598H5.31995C5.29107 17.3597 5.26265 17.3671 5.23746 17.3812C5.21227 17.3954 5.19118 17.4158 5.17623 17.4405C5.16128 17.4652 5.15299 17.4934 5.15216 17.5223C5.15133 17.5512 5.15799 17.5798 5.17149 17.6053C5.45777 18.1374 5.8827 18.5822 6.40125 18.8923C6.9198 19.2025 7.51263 19.3666 8.11687 19.3672Z" fill="white"/>
</svg>

