<svg width="14" height="16" viewBox="0 0 14 16" fill="none" xmlns="http://www.w3.org/2000/svg">
    <path d="M4.54804 12.5835C4.1271 12.5835 3.7708 12.4376 3.47915 12.146C3.18748 11.8543 3.04165 11.498 3.04165 11.077V1.58991C3.04165 1.16897 3.18748 0.812663 3.47915 0.520996C3.7708 0.229329 4.1271 0.0834961 4.54804 0.0834961H11.5352C11.9561 0.0834961 12.3124 0.229329 12.6041 0.520996C12.8957 0.812663 13.0416 1.16897 13.0416 1.58991V11.077C13.0416 11.498 12.8957 11.8543 12.6041 12.146C12.3124 12.4376 11.9561 12.5835 11.5352 12.5835H4.54804ZM4.54804 11.3335H11.5352C11.5993 11.3335 11.658 11.3068 11.7115 11.2534C11.7649 11.1999 11.7916 11.1412 11.7916 11.077V1.58991C11.7916 1.5258 11.7649 1.46703 11.7115 1.4136C11.658 1.36018 11.5993 1.33348 11.5352 1.33348H4.54804C4.48393 1.33348 4.42517 1.36018 4.37175 1.4136C4.31832 1.46703 4.2916 1.5258 4.2916 1.58991V11.077C4.2916 11.1412 4.31832 11.1999 4.37175 11.2534C4.42517 11.3068 4.48393 11.3335 4.54804 11.3335ZM1.6314 15.5001C1.21047 15.5001 0.854167 15.3542 0.5625 15.0626C0.270833 14.7709 0.125 14.4146 0.125 13.9937V3.88156C0.125 3.70421 0.184826 3.55571 0.304479 3.43606C0.424146 3.31641 0.572646 3.25658 0.749979 3.25658C0.927327 3.25658 1.07583 3.31641 1.1955 3.43606C1.31515 3.55571 1.37498 3.70421 1.37498 3.88156V13.9937C1.37498 14.0578 1.40169 14.1166 1.4551 14.17C1.50853 14.2234 1.5673 14.2501 1.6314 14.2501H9.24352C9.42087 14.2501 9.56937 14.3099 9.68904 14.4296C9.80869 14.5493 9.86852 14.6978 9.86852 14.8751C9.86852 15.0524 9.80869 15.2009 9.68904 15.3206C9.56937 15.4403 9.42087 15.5001 9.24352 15.5001H1.6314Z" fill="#002FB3"/>
</svg>
