<svg width="27" height="34" viewBox="0 0 27 34" fill="none" xmlns="http://www.w3.org/2000/svg">
    <rect x="0.710327" y="5.29102" width="21.5234" height="28.209" rx="3.63895" fill="#0090FC"/>
    <rect x="2.953" y="1.18664" width="23.1501" height="29.8357" rx="4.45231" fill="#0033C2" stroke="white" stroke-width="1.62672"/>
    <path d="M22.1965 16.3081C22.1965 20.4439 18.8247 23.803 14.6575 23.803C10.4903 23.803 7.11856 20.4439 7.11856 16.3081C7.11856 12.1723 10.4903 8.81314 14.6575 8.81314C18.8247 8.81314 22.1965 12.1723 22.1965 16.3081Z" fill="#0033C2" stroke="white" stroke-width="1.40069"/>
    <path d="M12.9845 8.42188V24.2396" stroke="white" stroke-width="0.973971"/>
    <path d="M16.3287 8.42188V24.2396" stroke="white" stroke-width="0.973971"/>
    <path d="M6.68335 14.6387H22.5892" stroke="white" stroke-width="0.973971"/>
    <path d="M6.68335 17.9849H22.5892" stroke="white" stroke-width="0.973971"/>
    <path d="M8.88904 10.5815L12.8545 14.547" stroke="white" stroke-width="0.973971"/>
    <path d="M20.43 10.5815L16.4205 14.547" stroke="white" stroke-width="0.973971"/>
    <path d="M8.88904 22.0363L12.8986 18.0708" stroke="white" stroke-width="0.973971"/>
    <path d="M16.3728 18.0708L20.3823 22.0803" stroke="white" stroke-width="0.973971"/>
    <path d="M22.1916 16.3081C22.1916 20.4411 18.8221 23.7981 14.6575 23.7981C10.493 23.7981 7.12344 20.4411 7.12344 16.3081C7.12344 12.175 10.493 8.81802 14.6575 8.81802C18.8221 8.81802 22.1916 12.175 22.1916 16.3081Z" stroke="white" stroke-width="1.41045"/>
</svg>
