<svg width="11" height="11" viewBox="0 0 11 11" fill="none" xmlns="http://www.w3.org/2000/svg">
    <rect width="10.5882" height="10.5882" rx="5.29412" fill="#449DE6"/>
    <mask id="mask0_396_1374" style="mask-type:alpha" maskUnits="userSpaceOnUse" x="1" y="1" width="9" height="9">
        <rect x="1.17651" y="1.17676" width="8.23529" height="8.23529" fill="#D9D9D9"/>
    </mask>
    <g mask="url(#mask0_396_1374)">
        <path d="M5.29417 8.38253C4.50495 8.38253 3.81725 8.12088 3.23106 7.5976C2.64486 7.07431 2.30887 6.42092 2.22309 5.63743H2.92652C3.00659 6.2322 3.27109 6.72403 3.72003 7.11292C4.16896 7.50181 4.69368 7.69625 5.29417 7.69625C5.96329 7.69625 6.53089 7.4632 6.99699 6.99711C7.46308 6.53101 7.69613 5.96341 7.69613 5.29429C7.69613 4.62517 7.46308 4.05757 6.99699 3.59147C6.53089 3.12538 5.96329 2.89233 5.29417 2.89233C4.89956 2.89233 4.53069 2.98383 4.18755 3.16684C3.84441 3.34985 3.55561 3.60148 3.32113 3.92174H4.26476V4.60802H2.20593V2.54919H2.89221V3.35556C3.18387 2.98955 3.53988 2.70646 3.96022 2.5063C4.38057 2.30614 4.82521 2.20605 5.29417 2.20605C5.72309 2.20605 6.12485 2.28755 6.49944 2.45054C6.87403 2.61353 7.20001 2.83371 7.47738 3.11108C7.75475 3.38845 7.97493 3.71443 8.13792 4.08902C8.30091 4.46361 8.3824 4.86537 8.3824 5.29429C8.3824 5.72321 8.30091 6.12497 8.13792 6.49956C7.97493 6.87415 7.75475 7.20013 7.47738 7.4775C7.20001 7.75487 6.87403 7.97505 6.49944 8.13804C6.12485 8.30103 5.72309 8.38253 5.29417 8.38253ZM6.25495 6.73547L4.95103 5.43155V3.5786H5.63731V5.15704L6.73534 6.25507L6.25495 6.73547Z" fill="white"/>
    </g>
</svg>

