<svg width="24" height="24" viewBox="0 0 24 24" fill="none" xmlns="http://www.w3.org/2000/svg">
    <g clip-path="url(#clip0_311_13403)">
        <path fill-rule="evenodd" clip-rule="evenodd" d="M13.8232 2.5172L7.54385 9.53025L4.82346 10.5551C3.62885 11.0052 3.0101 12.3587 3.46017 13.5533L4.55511 16.4596C4.90887 17.3986 5.82557 17.9696 6.78089 17.9563L7.65257 20.27C8.10264 21.4646 9.45738 22.0779 10.652 21.6279L13.5568 20.5335C14.7515 20.0834 15.3647 18.7287 14.9147 17.5341L14.8408 17.338C16.8305 17.5785 18.0291 17.7224 19.624 17.9143C20.0245 17.9648 20.4313 17.9157 20.8083 17.7713C21.1852 17.627 21.5208 17.3919 21.7852 17.0868C22.047 16.7741 22.2209 16.3972 22.2888 15.995C22.3568 15.5928 22.3164 15.1797 22.1719 14.7983L17.7954 3.1818C17.6845 2.89118 17.5166 2.62565 17.3017 2.40077C17.0868 2.1759 16.8291 1.99622 16.5438 1.87228C16.2585 1.74834 15.9513 1.68263 15.6402 1.67902C15.3292 1.6754 15.0206 1.73395 14.7324 1.85122C14.3447 2.01058 14.0516 2.26281 13.8232 2.5172ZM15.6285 3.21852C15.5238 3.21815 15.4202 3.23918 15.3239 3.28032C15.2217 3.3238 15.107 3.41099 14.9831 3.54888L8.8921 10.3575L10.7468 15.2804C11.3113 15.3481 16.7919 16.01 19.8146 16.373C20.157 16.4148 20.4295 16.284 20.5996 16.0839C20.769 15.8841 20.841 15.6505 20.7258 15.3447L16.3488 3.72681C16.3134 3.6283 16.2582 3.53807 16.1866 3.46166C16.1151 3.38524 16.0287 3.32426 15.9327 3.28245C15.8367 3.24064 15.7332 3.21888 15.6285 3.21852ZM7.54638 11.1879L5.37066 12.0076C4.95599 12.1638 4.75637 12.5915 4.91259 13.0061L6.00753 15.9124C6.04196 16.0095 6.09567 16.0986 6.16542 16.1745C6.23517 16.2503 6.31953 16.3112 6.41342 16.3536C6.50732 16.396 6.60881 16.419 6.71181 16.4212C6.81481 16.4233 6.91719 16.4047 7.01279 16.3663L9.18852 15.5466L7.54638 11.1879ZM10.2905 16.79L8.28475 17.5457L9.10499 19.7228C9.26122 20.1375 9.69013 20.3317 10.1048 20.1754L13.0096 19.0811C13.4243 18.9248 13.6185 18.4959 13.4623 18.0812L13.1033 17.1285L10.2905 16.79Z" fill="white"/>
    </g>
    <defs>
        <clipPath id="clip0_311_13403">
            <rect width="18.6252" height="18.6252" fill="white" transform="translate(0.00219727 6.56689) rotate(-20.6438)"/>
        </clipPath>
    </defs>
</svg>
