<svg width="35" height="28" viewBox="0 0 35 28" fill="none" xmlns="http://www.w3.org/2000/svg">
    <circle cx="11.9393" cy="11.6888" r="11.6878" fill="url(#paint0_radial_311_13289)"/>
    <circle cx="11.9393" cy="11.6888" r="11.6878" fill="url(#paint1_radial_311_13289)" fill-opacity="0.2"/>
    <circle cx="25.1796" cy="19.091" r="8.90888" fill="url(#paint2_radial_311_13289)"/>
    <circle cx="25.1796" cy="19.091" r="8.90888" fill="url(#paint3_radial_311_13289)" fill-opacity="0.2"/>
    <path d="M23.9087 22.0726C23.366 21.857 22.9182 21.5771 22.5653 21.2329C22.2157 20.8873 21.9822 20.5131 21.8648 20.1101C21.7474 19.7072 21.7662 19.3107 21.9211 18.9207C22.0406 18.62 22.2183 18.371 22.4545 18.1737C22.6939 17.9751 22.9653 17.8394 23.2689 17.7669C23.5734 17.692 23.8818 17.6894 24.1941 17.759L24.2137 17.7097C23.8592 17.4791 23.6209 17.1682 23.4989 16.777C23.3778 16.3835 23.3956 15.9893 23.5524 15.5946C23.7008 15.2211 23.9421 14.9321 24.2763 14.7275C24.6114 14.5206 25.0024 14.4094 25.4493 14.3938C25.8994 14.3767 26.3676 14.4648 26.8539 14.658C27.3403 14.8512 27.7401 15.1079 28.0535 15.4283C28.3693 15.7495 28.5781 16.1004 28.6799 16.4808C28.7827 16.859 28.7615 17.2341 28.6164 17.6062C28.4564 18.0023 28.1965 18.3003 27.837 18.5002C27.4774 18.7001 27.0931 18.7637 26.6841 18.691L26.6645 18.7403C26.9348 18.9021 27.1538 19.1142 27.3215 19.3767C27.4926 19.6378 27.597 19.9227 27.6348 20.2315C27.6759 20.5389 27.6379 20.8434 27.5208 21.145C27.3635 21.5341 27.104 21.8349 26.7421 22.0475C26.3802 22.2601 25.9523 22.3716 25.4585 22.3822C24.968 22.3914 24.4514 22.2881 23.9087 22.0726ZM24.3538 20.9519C24.5958 21.0481 24.8245 21.0886 25.04 21.0735C25.2563 21.0561 25.4458 20.9899 25.6084 20.875C25.7743 20.7586 25.8979 20.5983 25.9791 20.3939C26.0621 20.1848 26.0825 19.9794 26.0403 19.7776C25.9989 19.5735 25.906 19.3897 25.7615 19.2262C25.6179 19.0604 25.4287 18.9308 25.1937 18.8375C24.9612 18.7451 24.7346 18.7095 24.514 18.7307C24.2943 18.7495 24.0995 18.819 23.9294 18.9391C23.7625 19.0578 23.6376 19.2217 23.5545 19.4308C23.4733 19.6352 23.452 19.8362 23.4905 20.0337C23.5299 20.2289 23.6235 20.4075 23.7713 20.5696C23.92 20.7293 24.1142 20.8567 24.3538 20.9519ZM25.6347 17.7274C25.8367 17.8077 26.0328 17.838 26.2229 17.8183C26.4129 17.7986 26.5815 17.7336 26.7287 17.6234C26.8758 17.5132 26.9872 17.363 27.0628 17.1727C27.1374 16.9847 27.1581 16.8025 27.1248 16.6261C27.0925 16.4473 27.0146 16.2872 26.8913 16.1457C26.7689 16.0019 26.6043 15.8889 26.3976 15.8068C26.1932 15.7256 25.996 15.6949 25.8059 15.7146C25.6168 15.7319 25.4491 15.7945 25.3029 15.9024C25.16 16.0088 25.0512 16.156 24.9765 16.344C24.9009 16.5343 24.8788 16.72 24.9103 16.9011C24.9417 17.0822 25.0198 17.2452 25.1445 17.3899C25.2692 17.5347 25.4326 17.6472 25.6347 17.7274Z" fill="white"/>
    <path d="M12.4857 6.90866L15.3332 16.5866L13.287 17.1886L11.011 9.45289L10.9543 9.46957L9.14674 11.511L8.61283 9.69636L10.5624 7.47454L12.4857 6.90866Z" fill="white"/>
    <defs>
        <radialGradient id="paint0_radial_311_13289" cx="0" cy="0" r="1" gradientUnits="userSpaceOnUse" gradientTransform="translate(7.36222 8.90986) rotate(38.2614) scale(20.194)">
            <stop stop-color="#0459FE"/>
            <stop offset="0.340083" stop-color="#162FFB"/>
            <stop offset="0.436621" stop-color="#0B25FA"/>
            <stop offset="0.59375" stop-color="#172CEE"/>
            <stop offset="0.707801" stop-color="#0A20D9"/>
            <stop offset="0.958547" stop-color="#000F87" stop-opacity="0.36"/>
        </radialGradient>
        <radialGradient id="paint1_radial_311_13289" cx="0" cy="0" r="1" gradientUnits="userSpaceOnUse" gradientTransform="translate(9.89594 9.56372) rotate(-137.404) scale(21.6168)">
            <stop stop-color="#5784DA"/>
            <stop offset="0.73489" stop-color="#2534BB"/>
            <stop offset="1" stop-color="#041ADF"/>
        </radialGradient>
        <radialGradient id="paint2_radial_311_13289" cx="0" cy="0" r="1" gradientUnits="userSpaceOnUse" gradientTransform="translate(21.6908 16.9728) rotate(38.2614) scale(15.3926)">
            <stop stop-color="#38B7FF"/>
            <stop offset="0.340083" stop-color="#0396E9"/>
            <stop offset="0.436621" stop-color="#0B96FA"/>
            <stop offset="0.604167" stop-color="#009AF1"/>
            <stop offset="0.671875" stop-color="#1591D8"/>
            <stop offset="0.8125" stop-color="#0045AD"/>
            <stop offset="1" stop-color="#061A85" stop-opacity="0.36"/>
        </radialGradient>
        <radialGradient id="paint3_radial_311_13289" cx="0" cy="0" r="1" gradientUnits="userSpaceOnUse" gradientTransform="translate(23.6221 17.4712) rotate(-138.192) scale(11.8686)">
            <stop stop-color="#AED8FF"/>
            <stop offset="0.74661" stop-color="#4D97ED"/>
            <stop offset="1" stop-color="#0490DF"/>
        </radialGradient>
    </defs>
</svg>
