<svg width="35" height="36" viewBox="0 0 35 36" fill="none" xmlns="http://www.w3.org/2000/svg">
    <path d="M14.1658 6.552C14.5199 4.63721 16.3021 3.36146 18.1463 3.70253L31.5034 6.1728C33.3477 6.51387 34.5556 8.34261 34.2015 10.2574L30.5146 30.1928C30.1605 32.1076 28.3784 33.3834 26.5342 33.0423L13.177 30.572C11.3328 30.231 10.1248 28.4022 10.4789 26.4874L14.1658 6.552Z" fill="#0090FC"/>
    <path fill-rule="evenodd" clip-rule="evenodd" d="M16.9421 11.7402C17.0265 11.2842 17.4645 10.9829 17.9205 11.0672L22.8745 11.9834C23.3305 12.0678 23.6318 12.5058 23.5475 12.9618C23.4631 13.4178 23.0251 13.7191 22.5691 13.6348L17.6151 12.7186C17.1591 12.6342 16.8578 12.1962 16.9421 11.7402Z" fill="#0033C2"/>
    <path fill-rule="evenodd" clip-rule="evenodd" d="M16.2549 15.4565C16.3392 15.0005 16.7773 14.6992 17.2333 14.7836L28.3797 16.845C28.8357 16.9293 29.137 17.3674 29.0527 17.8234C28.9684 18.2794 28.5303 18.5807 28.0743 18.4963L16.9279 16.4349C16.4719 16.3506 16.1706 15.9125 16.2549 15.4565Z" fill="white"/>
    <path fill-rule="evenodd" clip-rule="evenodd" d="M15.5675 19.1719C15.6518 18.7159 16.0899 18.4146 16.5459 18.4989L25.6282 20.1786C26.0842 20.2629 26.3855 20.7009 26.3012 21.1569C26.2168 21.6129 25.7788 21.9142 25.3228 21.8299L16.2405 20.1502C15.7845 20.0659 15.4832 19.6279 15.5675 19.1719Z" fill="#0033C2"/>
    <rect x="0.129178" y="8.11865" width="22.4018" height="28.8736" rx="3.65054" transform="rotate(-19.68 0.129178 8.11865)" fill="#0033C2" stroke="white" stroke-width="1.54843"/>
    <path fill-rule="evenodd" clip-rule="evenodd" d="M7.95356 14.9916C7.79374 14.5448 8.01815 14.056 8.4548 13.8998L13.1985 12.2031C13.6351 12.0469 14.1186 12.2825 14.2785 12.7293C14.4383 13.1761 14.2139 13.665 13.7772 13.8211L9.03355 15.5179C8.5969 15.6741 8.11338 15.4385 7.95356 14.9916Z" fill="white"/>
    <path fill-rule="evenodd" clip-rule="evenodd" d="M9.25605 18.6308C9.09623 18.184 9.32064 17.6952 9.75729 17.539L20.4306 13.7213C20.8672 13.5651 21.3507 13.8007 21.5106 14.2476C21.6704 14.6944 21.446 15.1832 21.0093 15.3394L10.336 19.157C9.89939 19.3132 9.41587 19.0776 9.25605 18.6308Z" fill="white"/>
    <path fill-rule="evenodd" clip-rule="evenodd" d="M10.5566 22.2719C10.3968 21.8251 10.6212 21.3363 11.0578 21.1801L19.7546 18.0694C20.1912 17.9132 20.6747 18.1488 20.8346 18.5956C20.9944 19.0425 20.77 19.5313 20.3333 19.6875L11.6366 22.7981C11.1999 22.9543 10.7164 22.7187 10.5566 22.2719Z" fill="white"/>
</svg>
