<svg width="23" height="22" viewBox="0 0 23 22" fill="none" xmlns="http://www.w3.org/2000/svg">
    <g clip-path="url(#clip0_311_13379)">
        <path d="M11.1263 11.5798C13.4667 11.5798 15.364 9.68257 15.364 7.34216C15.364 5.00176 13.4667 3.10449 11.1263 3.10449C8.78594 3.10449 6.88867 5.00176 6.88867 7.34216C6.88867 9.68257 8.78594 11.5798 11.1263 11.5798Z" fill="#191BAF" stroke="white" stroke-width="1.41906" stroke-linecap="round" stroke-linejoin="round"/>
        <path fill-rule="evenodd" clip-rule="evenodd" d="M3.03615 17.2924C3.03481 16.947 3.11398 16.6058 3.26767 16.2946C3.74997 15.3534 5.11005 14.8545 6.23863 14.6286C7.05256 14.4591 7.87774 14.3459 8.708 14.2897C10.2452 14.158 11.7912 14.158 13.3284 14.2897C14.1586 14.3465 14.9838 14.4597 15.7978 14.6286C16.9264 14.8545 18.2865 15.3063 18.7688 16.2946C19.0778 16.9289 19.0778 17.6653 18.7688 18.2995C18.2865 19.2878 16.9264 19.7397 15.7978 19.9561C14.9848 20.1327 14.1594 20.2491 13.3284 20.3044C12.0773 20.4079 10.8203 20.4268 9.5665 20.3609C9.27712 20.3609 8.99738 20.3609 8.708 20.3044C7.88019 20.2498 7.05788 20.1333 6.24828 19.9561C5.11005 19.7397 3.75962 19.2878 3.26767 18.2995C3.11476 17.9848 3.03568 17.6407 3.03615 17.2924Z" fill="#191BAF" stroke="white" stroke-width="1.41906" stroke-linecap="round" stroke-linejoin="round"/>
    </g>
    <defs>
        <clipPath id="clip0_311_13379">
            <rect width="21.2859" height="21.2859" fill="white" transform="translate(0.857056 0.000488281)"/>
        </clipPath>
    </defs>
</svg>
