<svg width="9" height="14" viewBox="0 0 9 14" fill="none" xmlns="http://www.w3.org/2000/svg">
    <path d="M3.24545 8.946C3.24545 8.526 3.28745 8.16 3.37145 7.848C3.46745 7.524 3.62345 7.224 3.83945 6.948C4.06745 6.66 4.37945 6.36 4.77545 6.048C5.21945 5.712 5.55545 5.43 5.78345 5.202C6.02345 4.962 6.18545 4.734 6.26945 4.518C6.36545 4.302 6.41345 4.05 6.41345 3.762C6.41345 3.318 6.25145 2.976 5.92745 2.736C5.61545 2.484 5.17145 2.358 4.59545 2.358C4.06745 2.358 3.56345 2.436 3.08345 2.592C2.60345 2.736 2.11745 2.934 1.62545 3.186L0.815453 1.494C1.36745 1.182 1.96745 0.936 2.61545 0.756C3.26345 0.564 3.97745 0.467999 4.75745 0.467999C5.96945 0.467999 6.90545 0.755999 7.56545 1.332C8.23745 1.908 8.57345 2.676 8.57345 3.636C8.57345 4.14 8.48945 4.584 8.32145 4.968C8.16545 5.352 7.93145 5.706 7.61945 6.03C7.30745 6.354 6.92345 6.684 6.46745 7.02C6.08345 7.32 5.78945 7.578 5.58545 7.794C5.38145 8.01 5.23745 8.226 5.15345 8.442C5.08145 8.646 5.04545 8.892 5.04545 9.18V9.54H3.24545V8.946ZM2.83145 12.348C2.83145 11.832 2.96345 11.472 3.22745 11.268C3.50345 11.052 3.83945 10.944 4.23545 10.944C4.60745 10.944 4.92545 11.052 5.18945 11.268C5.46545 11.472 5.60345 11.832 5.60345 12.348C5.60345 12.84 5.46545 13.194 5.18945 13.41C4.92545 13.626 4.60745 13.734 4.23545 13.734C3.83945 13.734 3.50345 13.626 3.22745 13.41C2.96345 13.194 2.83145 12.84 2.83145 12.348Z" fill="url(#paint0_linear_771_2019)"/>
    <defs>
        <linearGradient id="paint0_linear_771_2019" x1="5.18945" y1="-19.6875" x2="12.2754" y2="30.5652" gradientUnits="userSpaceOnUse">
            <stop offset="0.101474" stop-color="#07A8DF"/>
            <stop offset="0.708333" stop-color="#143ED3"/>
        </linearGradient>
    </defs>
</svg>
