<svg width="19" height="20" viewBox="0 0 19 20" fill="none" xmlns="http://www.w3.org/2000/svg">
    <mask id="mask0_311_13175" style="mask-type:alpha" maskUnits="userSpaceOnUse" x="0" y="0" width="19" height="20">
        <rect x="0.820068" y="0.9375" width="18.125" height="18.125" fill="#D9D9D9"/>
    </mask>
    <g mask="url(#mask0_311_13175)">
        <path d="M3.84092 13.6164V15.0541C3.84092 15.1122 3.86513 15.1655 3.91354 15.2139C3.96196 15.2623 4.01522 15.2865 4.07332 15.2865H15.6919C15.75 15.2865 15.8032 15.2623 15.8516 15.2139C15.9001 15.1655 15.9243 15.1122 15.9243 15.0541V13.6164H3.84092ZM4.07332 5.86098H6.16325C6.10031 5.7477 6.05335 5.62813 6.02236 5.50226C5.99137 5.37639 5.97588 5.24423 5.97588 5.10578C5.97588 4.5781 6.15863 4.13151 6.52412 3.76602C6.88962 3.40052 7.3362 3.21777 7.86388 3.21777C8.18048 3.21777 8.47333 3.30004 8.74245 3.46456C9.01156 3.62908 9.24637 3.83341 9.44689 4.07754L9.86807 4.64104L10.2893 4.07754C10.4819 3.82387 10.7152 3.61715 10.989 3.4574C11.2629 3.29765 11.5578 3.21777 11.8738 3.21777C12.4004 3.21777 12.8465 3.40052 13.212 3.76602C13.5775 4.13151 13.7602 4.5781 13.7602 5.10578C13.7602 5.24423 13.746 5.37639 13.7174 5.50226C13.6888 5.62813 13.6407 5.7477 13.5729 5.86098H15.6919C16.0733 5.86098 16.3962 5.99315 16.6606 6.25747C16.9249 6.52178 17.0571 6.84467 17.0571 7.22616V15.0541C17.0571 15.4356 16.9249 15.7585 16.6606 16.0228C16.3962 16.2872 16.0733 16.4193 15.6919 16.4193H4.07332C3.69184 16.4193 3.36894 16.2872 3.10461 16.0228C2.84029 15.7585 2.70813 15.4356 2.70813 15.0541V7.22616C2.70813 6.84467 2.84029 6.52178 3.10461 6.25747C3.36894 5.99315 3.69184 5.86098 4.07332 5.86098ZM3.84092 11.6703H15.9243V7.22616C15.9243 7.16805 15.9001 7.1148 15.8516 7.06639C15.8032 7.01797 15.75 6.99376 15.6919 6.99376H11.5643L13.1067 9.10253L12.2034 9.75316L9.86807 6.58421L7.53274 9.75316L6.62942 9.10253L8.14856 6.99376H4.07332C4.01522 6.99376 3.96196 7.01797 3.91354 7.06639C3.86513 7.1148 3.84092 7.16805 3.84092 7.22616V11.6703ZM7.86388 5.86098C8.07786 5.86098 8.25722 5.78861 8.40197 5.64386C8.54671 5.49911 8.61909 5.31975 8.61909 5.10578C8.61909 4.8918 8.54671 4.71244 8.40197 4.56769C8.25722 4.42294 8.07786 4.35057 7.86388 4.35057C7.6499 4.35057 7.47054 4.42294 7.32579 4.56769C7.18105 4.71244 7.10867 4.8918 7.10867 5.10578C7.10867 5.31975 7.18105 5.49911 7.32579 5.64386C7.47054 5.78861 7.6499 5.86098 7.86388 5.86098ZM11.8723 5.86098C12.0862 5.86098 12.2656 5.78861 12.4103 5.64386C12.5551 5.49911 12.6275 5.31975 12.6275 5.10578C12.6275 4.8918 12.5551 4.71244 12.4103 4.56769C12.2656 4.42294 12.0862 4.35057 11.8723 4.35057C11.6583 4.35057 11.4789 4.42294 11.3342 4.56769C11.1894 4.71244 11.1171 4.8918 11.1171 5.10578C11.1171 5.31975 11.1894 5.49911 11.3342 5.64386C11.4789 5.78861 11.6583 5.86098 11.8723 5.86098Z" fill="white"/>
    </g>
</svg>
