<svg width="18" height="19" viewBox="0 0 18 19" fill="none" xmlns="http://www.w3.org/2000/svg">
    <path d="M4.33333 0.9491C2.80573 0.9491 1.4491 2.05862 1.4491 3.56452V15.4355C1.4491 16.9414 2.80573 18.0509 4.33333 18.0509H13.6667C15.1943 18.0509 16.5509 16.9414 16.5509 15.4355V3.56452C16.5509 2.05862 15.1943 0.9491 13.6667 0.9491H4.33333Z" fill="white" stroke="white" stroke-width="1.1018"/>
    <path fill-rule="evenodd" clip-rule="evenodd" d="M3.6106 6.04638C3.6106 5.70956 3.87742 5.43652 4.20657 5.43652H7.78244C8.11159 5.43652 8.37841 5.70956 8.37841 6.04638C8.37841 6.38319 8.11159 6.65623 7.78244 6.65623H4.20657C3.87742 6.65623 3.6106 6.38319 3.6106 6.04638Z" fill="#47A4EA"/>
    <path fill-rule="evenodd" clip-rule="evenodd" d="M3.61096 8.79052C3.61096 8.45371 3.87779 8.18066 4.20694 8.18066H12.2526C12.5818 8.18066 12.8486 8.45371 12.8486 8.79052C12.8486 9.12733 12.5818 9.40037 12.2526 9.40037H4.20694C3.87779 9.40037 3.61096 9.12733 3.61096 8.79052Z" fill="#47A4EA"/>
    <path fill-rule="evenodd" clip-rule="evenodd" d="M3.61154 11.5347C3.61154 11.1978 3.87837 10.9248 4.20752 10.9248H10.7633C11.0924 10.9248 11.3592 11.1978 11.3592 11.5347C11.3592 11.8715 11.0924 12.1445 10.7633 12.1445H4.20752C3.87837 12.1445 3.61154 11.8715 3.61154 11.5347Z" fill="#47A4EA"/>
</svg>
