<svg width="20" height="20" viewBox="0 0 20 20" fill="none" xmlns="http://www.w3.org/2000/svg">
    <path d="M8.95001 11.4309L7.15386 9.6405C7.06028 9.54692 6.9465 9.49692 6.81251 9.4905C6.67853 9.4841 6.55641 9.53603 6.44616 9.64628C6.33975 9.75269 6.28654 9.87064 6.28654 10.0001C6.28654 10.1296 6.33975 10.2476 6.44616 10.354L8.38464 12.2924C8.54617 12.454 8.73463 12.5348 8.95001 12.5348C9.1654 12.5348 9.35386 12.454 9.51539 12.2924L13.5539 8.25397C13.6513 8.15654 13.7023 8.0418 13.7067 7.90975C13.7112 7.77768 13.6603 7.65653 13.5539 7.54628C13.4436 7.43603 13.3247 7.37993 13.1971 7.378C13.0696 7.37608 12.9507 7.43025 12.8404 7.5405L8.95001 11.4309ZM6.66924 18.6155L5.35386 16.4155L2.87309 15.8925C2.67437 15.8553 2.51604 15.7485 2.39809 15.5723C2.28014 15.396 2.23142 15.2085 2.25194 15.0098L2.48846 12.454L0.805763 10.5348C0.664747 10.3899 0.594238 10.2117 0.594238 10.0001C0.594238 9.78859 0.664747 9.61038 0.805763 9.4655L2.48846 7.54628L2.25194 4.9905C2.23142 4.79178 2.28014 4.60428 2.39809 4.428C2.51604 4.25172 2.67437 4.14498 2.87309 4.1078L5.35386 3.58472L6.66924 1.38472C6.77694 1.20652 6.92181 1.08313 7.10386 1.01455C7.28591 0.945951 7.47437 0.955242 7.66924 1.04243L10 2.02705L12.3308 1.04243C12.5257 0.955242 12.7141 0.945951 12.8962 1.01455C13.0782 1.08313 13.2231 1.20652 13.3308 1.38472L14.6462 3.58472L17.1269 4.1078C17.3257 4.14498 17.484 4.25172 17.6019 4.428C17.7199 4.60428 17.7686 4.79178 17.7481 4.9905L17.5116 7.54628L19.1943 9.4655C19.3353 9.61038 19.4058 9.78859 19.4058 10.0001C19.4058 10.2117 19.3353 10.3899 19.1943 10.5348L17.5116 12.454L17.7481 15.0098C17.7686 15.2085 17.7199 15.396 17.6019 15.5723C17.484 15.7485 17.3257 15.8553 17.1269 15.8925L14.6462 16.4155L13.3308 18.6155C13.2231 18.7937 13.0782 18.9171 12.8962 18.9857C12.7141 19.0543 12.5257 19.045 12.3308 18.9578L10 17.9732L7.66924 18.9578C7.47437 19.045 7.28591 19.0543 7.10386 18.9857C6.92181 18.9171 6.77694 18.7937 6.66924 18.6155Z" fill="#002FB3"/>
</svg>

